<?xml version="1.0" encoding="UTF-8" ?>
<!DOCTYPE svg PUBLIC "-//W3C//DTD SVG 1.1//EN" "http://www.w3.org/Graphics/SVG/1.1/DTD/svg11.dtd">
<svg width="240pt" height="240pt" viewBox="0 0 240 240" version="1.1" xmlns="http://www.w3.org/2000/svg">
<g id="#5377c3ff">
<path fill="#5377c3" opacity="1.00" d=" M 115.52 0.00 L 124.49 0.00 C 150.84 1.12 176.80 10.90 196.97 27.97 C 222.85 49.34 238.74 82.00 240.00 115.51 L 240.00 124.50 C 238.89 151.31 228.71 177.69 211.15 198.02 C 189.76 223.30 157.55 238.73 124.50 240.00 L 115.49 240.00 C 85.57 238.77 56.20 226.17 35.16 204.80 C 13.81 183.75 1.20 154.39 0.00 124.48 L 0.00 115.47 C 1.21 85.57 13.83 56.22 35.17 35.18 C 56.23 13.81 85.60 1.21 115.52 0.00 M 104.56 75.45 C 102.75 83.39 103.73 91.60 103.54 99.67 C 99.36 99.84 95.18 99.71 91.01 99.76 C 91.00 105.76 90.98 111.76 91.02 117.76 C 95.18 117.75 99.33 117.74 103.49 117.76 C 103.49 138.48 103.54 159.20 103.46 179.93 C 111.23 180.08 119.00 179.99 126.77 179.97 C 126.74 159.23 126.75 138.50 126.76 117.76 C 132.89 117.73 139.01 117.76 145.13 117.75 C 145.56 111.75 146.01 105.75 146.52 99.76 C 139.97 99.76 133.41 99.71 126.86 99.79 C 126.68 94.87 126.71 89.95 126.80 85.03 C 126.70 81.88 129.85 79.93 132.59 79.43 C 137.04 78.68 141.55 79.55 145.89 80.57 C 146.83 74.41 147.97 68.29 148.94 62.14 C 140.77 60.32 132.32 59.76 123.97 60.10 C 115.16 60.48 106.58 66.68 104.56 75.45 Z" />
</g>
<g id="#ffffffff">
<path fill="#ffffff" opacity="1.00" d=" M 104.56 75.45 C 106.58 66.68 115.16 60.48 123.97 60.10 C 132.32 59.76 140.77 60.32 148.94 62.14 C 147.97 68.29 146.83 74.41 145.89 80.57 C 141.55 79.55 137.04 78.68 132.59 79.43 C 129.85 79.93 126.70 81.88 126.80 85.03 C 126.71 89.95 126.68 94.87 126.86 99.79 C 133.41 99.71 139.97 99.76 146.52 99.76 C 146.01 105.75 145.56 111.75 145.13 117.75 C 139.01 117.76 132.89 117.73 126.76 117.76 C 126.75 138.50 126.74 159.23 126.77 179.97 C 119.00 179.99 111.23 180.08 103.46 179.93 C 103.54 159.20 103.49 138.48 103.49 117.76 C 99.33 117.74 95.18 117.75 91.02 117.76 C 90.98 111.76 91.00 105.76 91.01 99.76 C 95.18 99.71 99.36 99.84 103.54 99.67 C 103.73 91.60 102.75 83.39 104.56 75.45 Z" />
</g>
</svg>
